PathFileType	4	(X/Y/Z)	C:/Users/beibeiliu/ov580/test_trc/User1\sequence.9_training_dense_right.trc
DataRate	CameraRate	NumFrames	NumMarkers	Units	OrigDataRate	OrigDataStartFrame	OrigNumFrames
120	120	25	19	mm	120	27	53
Frame#	Time	ThumbCMC			ThumbMCP			ThumbIP			ThumbTip			IndexMCP			IndexPIP			IndexTip			MiddleMCP			MiddlePIP			MiddleTip			RingMCP			RingPIP			RingTip			PinkyMCP			PinkyPIP			PinkyTip			BackHand1			BackHand2			BackHand3	
		X0	Y0	Z0	X1	Y1	Z1	X2	Y2	Z2	X3	Y3	Z3	X4	Y4	Z4	X5	Y5	Z5	X6	Y6	Z6	X7	Y7	Z7	X8	Y8	Z8	X9	Y9	Z9	X10	Y10	Z10	X11	Y11	Z11	X12	Y12	Z12	X13	Y13	Z13	X14	Y14	Z14	X15	Y15	Z15	X16	Y16	Z16	X17	Y17	Z17	X18	Y18	Z18	
26	0.216667	211.042	83.0374	92.5142	212.449	99.7586	69.0273	212.482	108.242	42.1537	208.943	116.466	18.9895	196.898	76.2492	9.47862	188.34	72.3833	-13.5888	183.132	71.4193	-41.2628	181.938	54.9681	1.78659	172.108	56.2965	-25.8718	165.737	53.6294	-51.5341	167.545	42.2931	6.1562	163.176	43.9485	-17.7817	157.101	40.9652	-41.2013	150.878	27.465	28.9754	150.157	31.7814	9.75831	150.044	30.2225	-12.5565	184.884	30.1142	61.1516	194.005	19.4148	91.4409	214.178	49.1029	75.2044	
27	0.225	219.898	86.4008	99.4839	223.066	103.877	72.6835	226.336	106.391	39.723	223.763	114.805	19.5889	226.922	70.0193	11.4205	227.305	68.7045	-12.9082	224.32	67.1608	-42.6803	217.707	49.4754	2.27952	216.1	48.2554	-26.0679	215.34	50.9915	-58.5633	201.851	32.5376	9.72776	205.142	37.3057	-19.0256	200.848	35.1439	-46.4747	183.556	21.44	25.4212	183.529	19.5895	5.4422	192.173	27.3654	-21.3161	206.765	26.1453	61.1836	213.226	20.4315	97.845	229.324	50.8745	77.9059	
28	0.233333	199.025	91.575	98.0485	199.133	108.996	70.1719	202.861	113.342	44.9493	202.285	117.951	18.6701	234.843	89.8455	17.2982	240.047	88.5675	-5.73344	240.887	85.4828	-38.4741	239.646	65.8478	9.03793	244.442	68.7107	-16.7681	248.325	68.441	-50.3333	233.88	44.8203	12.1647	240.813	47.3548	-13.431	240.396	50.2028	-39.545	219.041	24.2884	26.7521	225.836	27.7978	5.3594	231.998	33.9442	-17.0754	227.667	37.8829	68.651	226.665	31.0707	102.515	229.46	71.1413	84.9863	
29	0.241667	169.117	78.9693	99.221	157.566	93.1603	71.6522	159.637	104.786	42.3243	163.066	103.795	16.1779	205.336	100.338	17.2146	210.379	104.651	-2.87986	217.891	105.461	-29.0261	226.361	87.6725	11.6814	230.782	92.592	-14.5224	235.681	100.67	-44.8662	234.577	66.9523	19.1886	240.674	77.2149	-8.64952	242.32	81.8241	-34.7286	234.291	43.0645	32.5819	241.393	50.4699	9.47762	245.65	59.6879	-10.8331	228.765	57.7576	71.4082	229.664	50.9642	106.383	204.794	83.2483	91.7172	
30	0.25	151.52	59.3674	96.321	136.529	63.5784	68.8526	134.254	69.0973	42.5932	132.248	70.6141	19.7005	171.396	89.4413	16.6721	180.503	92.6321	-6.83507	186.924	99.0416	-28.2765	200.203	87.7005	10.8689	203.017	94.1282	-15.6714	208.467	101.296	-42.9698	219.435	78.0599	17.7632	219.431	86.9739	-6.57165	226.024	91.6466	-34.3251	230.313	59.305	35.1846	232.313	67.3563	13.7876	234.492	77.3475	-6.43408	216.837	69.0652	74.2622	216.02	66.8677	106.011	182.543	80.189	90.8025	
31	0.258333	145.559	44.5091	98.1604	131.077	42.0828	66.871	128.045	43.7923	41.7508	121.204	42.5733	18.6211	163.819	66.5896	15.8801	166.825	69.1689	-10.4368	175.694	75.0355	-32.9179	188.97	72.3756	6.69061	191.597	73.406	-17.1129	192.422	80.579	-47.0944	207.49	67.8311	15.1195	210.028	72.6054	-9.21219	209.56	76.1533	-31.4141	226.781	57.3012	37.8035	226.33	62.3262	17.1688	224.158	71.1088	-6.98007	204.22	68.5654	73.0541	202.085	73.0551	108.135	172.656	72.1475	87.4661	
32	0.266667	138.064	39.0926	103.194	125.838	31.3407	69.9298	123.152	29.8186	41.9714	118.84	24.5652	22.3155	158.104	46.419	15.8554	159.655	42.9149	-12.1441	167.752	43.8801	-31.6675	182.371	49.8478	9.14118	182.325	45.608	-18.361	190.131	47.837	-45.5032	202.823	49.3325	16.9291	202.815	48.965	-7.96907	207.312	49.3073	-34.1578	220.129	44.962	40.903	225.177	46.6339	19.1111	220.015	49.5278	-8.75438	201.261	63.3817	73.3879	200.414	70.1106	104.018	166.714	66.0354	82.1536	
33	0.275	136.671	47.7426	104.592	118.942	41.2173	78.2605	116.276	37.0445	49.1544	109.709	34.0192	26.4739	148.584	42.2714	13.422	151.958	36.2935	-6.85624	161.537	32.3219	-29.8423	177.846	37.4021	10.794	173.868	31.59	-15.6802	175.841	28.5401	-42.0636	195.822	32.2667	14.1533	195.151	30.0719	-8.13078	197.154	25.1272	-30.7837	212.272	26.8875	38.0728	214.116	25.3571	18.8626	212.78	28.5744	-8.77294	199.144	54.6421	71.4494	199.898	63.8386	99.8575	163.89	66.1694	85.2903	
34	0.283333	145.025	70.9799	103.18	124.495	75.9194	77.1479	119.906	70.3423	53.78	108.191	70.5269	28.8189	147.476	53.4011	16.9012	141.522	49.5838	-9.57643	144.7	40.5735	-29.0272	161.278	40.3572	6.50798	156.817	32.9491	-14.3992	155.032	25.3397	-44.9881	177.074	25.3531	15.7338	174.193	20.0361	-6.34439	168.519	17.039	-34.5297	190.152	10.732	37.3544	189.355	6.71258	17.246	186.451	11.4779	-6.66306	197.018	39.986	71.1616	205.255	51.2128	100.121	175.361	70.4982	80.5105	
35	0.291667	167.376	88.6251	102.393	150.402	102.979	72.99	139.597	104.854	49.3334	128.202	102.537	29.7138	150.455	71.589	11.3313	142.443	62.2258	-6.4902	136.297	57.0719	-29.8813	155.53	45.4264	3.95769	145.342	41.1872	-17.1332	136.888	32.0318	-42.8586	160.965	23.5293	16.4676	151.521	24.4003	-9.84105	144.485	17.12	-34.2129	164.323	9.34409	35.076	159.644	6.37891	20.7371	156.545	6.05352	-6.15407	190.338	35.6062	66.043	206.343	37.6533	97.0394	191.345	67.094	76.0733	
36	0.3	185.714	90.2024	93.6985	173.558	108.013	72.1	163.424	112.186	40.9131	152.461	118.805	24.8942	159.233	72.1406	10.2245	148.757	72.1488	-10.4663	137.172	62.175	-30.492	154.383	52.5432	2.81388	141.499	48.653	-16.7604	129.592	45.8887	-46.2159	151.207	29.8166	15.9948	139.717	29.0982	-10.3399	129.638	27.3259	-32.9925	148.785	12.1536	39.4978	140.912	9.80095	15.633	140.64	12.7977	-2.74422	182.578	30.6228	64.8502	200.411	29.382	89.1018	199.15	60.8961	74.703	
37	0.308333	200.855	85.6186	94.3403	197	106.804	67.4097	188.587	111.461	35.5288	180.665	119.411	18.3796	173.042	73.1634	8.71633	161.716	70.7928	-12.5902	151.211	70.1389	-37.1452	161.401	51.5732	0.882277	147.861	50.9988	-20.1336	135.162	49.4883	-47.8801	152.48	33.1424	13.8558	141.155	35.4231	-12.5228	132.689	36.8557	-32.8043	142.835	18.7944	35.8907	135.879	18.663	15.0874	135.153	20.6326	-8.14062	183.204	25.8593	64.2375	196.997	19.1659	88.8354	204.617	53.3416	67.9589	
38	0.316667	210.289	84.7227	95.5791	208.832	103.749	67.8656	205.124	108.193	36.4203	199.446	117.558	19.7305	189.982	73.2074	3.26766	182.65	73.8826	-18.9165	170.642	70.5994	-42.5579	177.414	50.3808	-0.494463	169.496	55.9697	-24.0736	160.157	55.8556	-54.4407	166.304	37.8354	6.35052	159.324	36.7857	-13.9693	152.697	41.1895	-38.798	155.412	22.4791	32.2481	149.346	21.1272	14.1067	150.838	24.0924	-10.3831	190.119	27.1769	63.4143	203.145	21.4137	89.1688	215.332	50.1828	70.0551	
39	0.325	202.374	92.2521	99.7393	200.167	106.059	68.3418	200.253	109.104	41.1706	196.025	119.083	22.6254	208.059	81.8041	11.4884	205.883	81.0111	-15.1184	199.689	77.2353	-42.6107	205.238	58.4898	-2.97111	199.642	58.1128	-29.4813	194.096	57.0029	-59.0322	194.934	36.1679	2.19929	193.83	40.1323	-21.26	189.142	43.4126	-47.2668	185.082	22.3116	24.5544	183.695	19.6332	3.09665	187.371	23.9122	-21.0956	207.412	27.9473	62.3681	214.397	23.6618	94.8504	223.231	61.0987	76.3211	
40	0.333333	182.588	89.8182	98.5917	174.886	103.861	72.145	176.844	112.535	44.8964	175.296	119.243	24.0844	207.351	93.1569	14.8228	209.67	90.4159	-11.2867	211.697	88.1909	-41.4954	219.208	68.2398	3.10468	217.33	72.8137	-21.9021	219.351	72.8774	-54.8681	220.042	45.5376	9.05176	222.329	52.6712	-17.934	223.294	53.5781	-42.9038	216.15	23.3976	23.9917	220.41	25.7221	2.93919	227.34	33.071	-18.2916	222.24	42.6785	65.2951	227.076	37.9527	97.964	216.398	71.2926	82.8495	
41	0.341667	167.029	76.5634	97.9167	151.092	88.5926	73.7691	152.327	97.8566	44.8944	143.783	107.588	24.147	194.029	96.2068	16.4283	199.71	97.0192	-9.59294	203.694	98.1585	-34.4242	218.328	81.4628	5.13993	222.053	81.7711	-19.6766	227.061	83.4507	-51.1428	232.276	60.7143	12.2574	234.947	68.2836	-8.69634	241.034	70.8726	-38.4483	236.949	35.0781	33.153	243.939	42.9931	9.847	254.334	49.368	-6.45315	228.463	54.943	72.4932	227.825	51.3157	100.275	203.649	79.9817	87.188	
42	0.35	159.766	64.6129	96.5559	139.998	67.0219	74.5254	130.738	76.4221	46.5267	117.438	82.1619	28.0503	184.273	81.1142	11.4211	186.832	82.0415	-9.98497	191.037	83.2618	-35.8013	214.085	76.154	6.8215	217.055	77.6822	-15.0912	222.223	81.1942	-46.2598	228.898	64.504	19.2773	237.229	71.861	-5.27685	241.069	76.3188	-27.7511	244.958	41.308	40.6893	254.648	47.0888	24.6002	265.877	59.3744	4.86996	224.469	60.6763	75.4887	225.618	59.7333	103.711	193.453	77.143	83.7469	
43	0.358333	151.317	51.1972	96.5113	134.769	45.7109	74.574	121.761	47.8326	50.3142	107.732	47.8838	34.8251	175.921	57.195	12.7141	174.353	56.8836	-17.0512	179.175	55.5524	-38.0248	204.268	59.6123	9.59895	205.771	61.8941	-18.8929	212.574	63.5789	-45.6147	225.708	56.3515	22.1423	232.344	63.8046	-6.13796	241.705	66.6643	-26.8562	245.832	40.5055	43.4928	253.016	45.9513	27.0314	265.252	57.8769	10.905	217.909	57.0079	74.8017	218.643	62.2985	103.049	187.763	66.2751	84.8769	
44	0.366667	153.293	38.0152	92.0684	132.861	32.1866	74.9111	119.075	31.2479	50.8495	102.88	30.359	35.5531	171.685	41.5001	6.30435	171.762	38.726	-15.241	181.078	36.7806	-41.7197	201.426	44.3614	4.46189	207.596	44.2921	-21.5275	212.234	46.0532	-49.5198	225.096	42.4096	16.4441	230.166	49.493	-8.24222	238.852	51.988	-29.1954	240.286	28.638	41.5992	254.337	34.8081	26.2305	260.724	47.9312	9.39442	217.233	47.9322	68.271	215.9	52.8583	103.965	182.38	55.5862	81.8301	
45	0.375	152.327	36.9181	91.9471	130.451	31.5891	71.3339	115.378	31.4696	48.543	99.0629	29.8371	34.0463	173.819	38.8432	10.5066	171.173	36.2088	-16.6019	177.933	34.0504	-44.7111	199.95	42.4047	4.77742	203.159	41.9068	-20.2299	212.754	41.5453	-51.0289	221.627	37.9623	19.8178	229.486	44.7403	-8.87339	236.828	48.5312	-31.1634	243.504	26.2275	41.165	249.512	29.738	27.0813	264.665	44.3718	12.1812	213.962	43.694	69.4221	218.342	52.4818	103.189	179.968	54.2255	77.1659	
46	0.383333	148.644	38.5027	92.2616	131.103	32.0541	72.4247	114.568	31.3411	46.2371	102.605	28.1071	35.9032	169.598	39.0021	9.53733	174.405	36.9036	-16.5104	180.718	34.4761	-45.6935	201.113	41.7771	5.92192	203.845	42.3211	-22.3224	212.319	41.314	-50.8102	221.076	38.211	19.9973	228.58	44.4496	-8.42522	235.939	47.5601	-32.0884	244.553	25.898	41.4207	255.216	30.3659	24.6872	260.208	42.5975	8.80376	218.874	41.4927	66.575	218.216	51.8615	98.4966	183.969	53.9092	78.069	
47	0.391667	148.403	39.1065	94.4958	131.586	30.8563	73.2319	113.786	32.3111	48.2422	100.353	29.8764	32.0242	170.838	40.2871	10.75	170.854	38.5485	-19.9749	176.75	37.0666	-43.3123	201.511	43.4035	3.12263	207.758	42.9509	-21.9552	211.638	43.4833	-51.3886	225.596	37.9762	20.6746	228.926	44.9708	-7.65866	238.955	48.2391	-31.3793	240.235	25.3419	41.5093	252.803	29.4601	26.3085	261.975	41.3773	10.0242	216.506	42.2285	66.1769	213.105	53.9217	102.619	181.254	56.1976	78.4788	
48	0.4	150.872	39.7883	92.1254	132.411	31.0957	71.9122	114.376	33.0429	47.1296	102.845	28.6324	36.0438	171.068	41.284	8.99154	174.088	39.5071	-17.9762	179.077	38.0217	-43.5786	203.47	43.2897	3.90037	203.935	43.829	-20.6626	209.848	43.3427	-49.3898	221.968	39.4448	17.1274	233.35	44.7673	-5.90078	234.965	46.6412	-28.8259	242.539	23.8771	45.0672	251.622	29.2249	29.1403	262.319	43.4337	7.75937	218.685	43.8694	66.7477	215.452	52.3858	103.744	185.977	55.7595	77.3446	
49	0.408333	147.52	40.1743	95.333	132.915	32.3725	71.9982	117.661	32.6984	47.3736	101.212	31.2627	34.3381	172.159	41.114	10.9138	172.83	39.377	-15.4737	177.419	38.193	-43.5502	202.402	44.3852	5.7142	207.154	43.6801	-21.9248	216.389	43.4875	-48.5933	225.2	40.0939	19.0442	230.866	44.8688	-5.06989	239.544	48.9187	-31.2423	239.839	27.5413	38.9187	249.796	30.69	25.0065	264.617	44.8558	10.3384	217.645	45.6553	69.9782	212.746	52.5852	101.91	183.846	56.1811	78.8073	
50	0.416667	150.051	40.7502	90.6335	131.196	33.886	72.2997	118.648	32.8463	46.608	100.506	33.3324	31.2545	170.11	41.4361	6.13776	176.807	40.2195	-16.4086	177.869	39.6152	-44.7534	203.519	43.9933	4.96488	208.209	44.5906	-21.2552	217.075	45.1053	-52.3494	223.961	41.3422	17.3936	233.746	44.9609	-4.9592	239.296	47.6479	-28.9886	241.545	25.1611	43.5148	254.784	32.1342	25.3791	262.24	46.3634	7.22042	217.797	45.6123	67.7896	216.877	54.4406	102.847	184.952	57.1168	79.2147	
